<?xml version="1.0" standalone="no"?>
<!DOCTYPE svg PUBLIC "-//W3C//DTD SVG 20010904//EN"
 "http://www.w3.org/TR/2001/REC-SVG-20010904/DTD/svg10.dtd">
<svg version="1.0" xmlns="http://www.w3.org/2000/svg"
 width="226.000000pt" height="230.000000pt" viewBox="0 0 226.000000 230.000000"
 preserveAspectRatio="xMidYMid meet">

<g transform="translate(0.000000,230.000000) scale(0.100000,-0.100000)"
fill="#000000" stroke="none">
<path d="M105 2266 c-41 -18 -83 -69 -90 -109 -3 -18 -4 -485 -3 -1039 3 -999
3 -1007 24 -1034 11 -15 33 -37 48 -48 27 -21 35 -21 1034 -24 688 -2 1019 0
1044 8 20 5 50 26 67 45 l31 36 0 1044 0 1043 -27 33 c-53 62 2 59 -1095 59
-811 -1 -1009 -3 -1033 -14z m2076 -72 c23 -23 33 -44 36 -77 5 -44 5 -45 -49
-86 -100 -75 -265 -133 -553 -195 -223 -48 -545 -90 -545 -72 0 12 56 89 80
111 12 11 26 27 31 37 13 25 -403 -117 -532 -181 -215 -108 -398 -253 -515
-408 -32 -43 -62 -82 -66 -88 -5 -5 -7 200 -6 457 l3 466 25 27 c14 15 34 31
45 36 11 4 469 7 1017 6 l998 -2 31 -31z m-213 -564 c67 -52 161 -162 211
-248 l41 -69 -2 -591 -3 -592 -33 -32 -32 -33 -1010 0 -1010 0 -32 33 -33 32
-3 276 -3 275 53 -6 c271 -31 496 -100 873 -267 l180 -80 80 7 c323 27 542
120 721 306 132 139 253 339 205 339 -6 0 -38 -24 -73 -53 -247 -208 -544
-332 -824 -344 -156 -7 -215 4 -449 82 -243 81 -331 100 -465 99 -93 -1 -211
-14 -277 -31 -23 -5 -23 -5 -23 127 l0 132 34 47 c74 100 199 198 345 272 74
37 254 109 272 109 5 0 -10 -24 -34 -53 -57 -70 -85 -130 -98 -206 -26 -162
58 -334 209 -425 171 -103 447 -113 632 -24 81 39 176 132 214 210 75 153 40
348 -84 468 -62 60 -108 82 -245 118 l-110 29 110 7 c213 14 434 57 539 105
58 27 68 26 124 -19z m-505 -400 c35 -28 61 -100 53 -145 -11 -56 -53 -96
-108 -102 -63 -7 -181 21 -247 58 l-55 32 75 21 c90 26 150 60 204 115 21 23
42 41 46 41 3 0 18 -9 32 -20z"/>
</g>
</svg>
