<?xml version="1.0" standalone="no"?>
<!DOCTYPE svg PUBLIC "-//W3C//DTD SVG 20010904//EN"
 "http://www.w3.org/TR/2001/REC-SVG-20010904/DTD/svg10.dtd">
<svg version="1.0" xmlns="http://www.w3.org/2000/svg"
 width="1180.000000pt" height="206.000000pt" viewBox="0 0 1180.000000 206.000000"
 preserveAspectRatio="xMidYMid meet">

<g transform="translate(0.000000,206.000000) scale(0.100000,-0.100000)"
fill="#000000" stroke="none">
<path d="M865 1923 c-214 -30 -438 -151 -560 -302 -136 -170 -197 -350 -198
-586 0 -197 40 -345 135 -501 166 -276 528 -436 893 -395 396 45 672 266 781
626 25 82 27 105 28 260 0 144 -3 182 -21 251 -91 343 -340 571 -695 639 -74
14 -285 19 -363 8z m315 -390 c170 -46 306 -186 344 -353 20 -88 20 -219 1
-295 -70 -267 -334 -420 -620 -360 -94 20 -165 56 -233 120 -74 68 -117 141
-142 239 -84 330 110 635 425 665 88 8 155 4 225 -16z"/>
<path d="M11674 1909 c-31 -34 -141 -90 -247 -125 -204 -68 -646 -154 -792
-154 l-66 0 13 25 c8 14 38 50 67 80 30 31 52 57 50 60 -11 10 -474 -157 -575
-208 -234 -117 -421 -275 -548 -460 l-46 -68 0 -126 0 -126 39 59 c70 107 195
214 341 291 63 33 279 123 296 123 3 0 -14 -23 -39 -50 -59 -65 -86 -124 -100
-210 -33 -216 91 -396 333 -482 80 -29 282 -36 381 -14 368 82 510 465 268
721 -57 61 -123 93 -254 127 l-90 23 110 7 c182 10 393 52 508 99 l70 29 36
-25 c61 -42 157 -146 215 -234 31 -46 56 -88 56 -93 0 -4 5 -8 10 -8 6 0 10
133 10 380 0 404 -1 409 -46 359z m-722 -826 c37 -40 50 -71 50 -115 -1 -57
-35 -105 -82 -118 -52 -14 -156 3 -232 37 -84 37 -88 48 -25 62 82 18 150 55
203 108 27 28 52 51 55 51 3 1 17 -10 31 -25z"/>
<path d="M3000 1035 l0 -866 438 4 c366 3 447 6 500 20 421 112 654 410 654
837 0 260 -74 451 -237 615 -87 87 -167 139 -288 185 -155 60 -174 62 -639 67
l-428 5 0 -867z m819 480 c190 -45 332 -199 362 -394 29 -193 -38 -376 -178
-483 -111 -84 -210 -107 -460 -108 l-143 0 0 500 0 500 178 0 c122 0 197 -5
241 -15z"/>
<path d="M5640 1035 l0 -865 200 0 200 0 0 865 0 865 -200 0 -200 0 0 -865z"/>
<path d="M7190 1035 l0 -865 200 0 200 0 2 516 3 516 370 -513 370 -514 173
-3 172 -2 0 865 0 865 -200 0 -200 0 -2 -515 -3 -515 -373 515 -373 515 -170
0 -169 0 0 -865z"/>
<path d="M11645 838 c-11 -6 -42 -31 -69 -55 -69 -62 -218 -159 -302 -198
-194 -90 -350 -133 -512 -142 -130 -8 -218 9 -440 84 -326 109 -478 124 -739
72 -49 -10 -53 -13 -53 -38 l0 -28 90 -7 c121 -9 183 -21 325 -62 162 -47 305
-101 520 -196 l180 -80 98 6 c246 15 467 92 623 217 129 102 285 310 310 412
7 29 0 33 -31 15z"/>
</g>
</svg>
