<svg xmlns="http://www.w3.org/2000/svg" width="1024" height="1024" viewBox="0 0 102.4 102.4"><style>path{fill:#fff}</style><path d="M50.67 86.55l-29.8-17.2c-.37-.22-.6-.61-.6-1.04V41.75c0-.46.5-.75.9-.52l34.6 19.98a.728.728 0 0 0 1.09-.63V47.62c0-.52-.28-.99-.72-1.25L14.5 22.32c-.37-.22-.83-.22-1.21 0l-5.45 3.15c-.37.22-.6.61-.6 1.04v49.37c0 .43.23.83.6 1.04l42.75 24.68c.37.22.83.22 1.21 0l35.9-20.73c.48-.28.48-.97 0-1.25l-11.2-6.47c-.45-.26-1-.26-1.45 0L51.87 86.53c-.37.22-.83.22-1.21 0zm43.89-61.08L51.8.79c-.37-.22-.83-.22-1.21 0l-22.6 13.05c-.48.28-.48.97 0 1.25l11.1 6.41c.45.26 1 .26 1.45 0l10.12-5.84c.37-.22.83-.22 1.21 0l29.8 17.2c.37.22.6.61.6 1.04v26.7c0 .52.28.99.72 1.25l11.08 6.4a.728.728 0 0 0 1.09-.63v-41.1c0-.43-.23-.83-.6-1.04z"/></svg>