<svg xmlns="http://www.w3.org/2000/svg" width="1602" height="438" fill="none"><path d="M141.092 224.675H62.527v124.368H1V11.403h139.619c79.985 0 126.367 36.413 126.367 106.872 0 70.46-46.382 106.4-125.894 106.4zm-78.565-49.18h72.886c46.382 0 69.573-18.916 69.573-57.22 0-38.776-23.191-57.219-69.573-57.219H62.527v114.439zm370.59 173.548c-2.367-13.24-3.313-26.008-3.313-37.83-11.359 27.427-41.649 43.032-79.985 43.032-46.856 0-80.932-26.009-80.932-69.514 0-48.234 37.863-68.095 86.611-73.77l71.939-8.039v-11.349c0-29.319-17.984-43.506-45.435-43.506-26.504 0-42.596 14.66-44.489 36.885h-58.214c5.206-51.544 45.435-81.809 104.596-81.809 65.313 0 102.703 30.738 102.703 93.159v92.685c0 22.226.947 40.668 4.733 60.056h-58.214zm-66.733-36.885c31.236 0 61.053-18.442 61.053-56.273v-14.659l-53.481 6.147c-25.557 3.31-44.962 8.985-44.962 34.048 0 18.915 13.252 30.737 37.39 30.737zm226.411 36.412l-93.71-239.752h61.527l66.733 181.115h.946l63.421-181.115h60.107l-93.711 244.481c-22.717 60.057-50.641 83.228-101.283 83.701-8.046 0-19.404-.946-27.923-2.364v-45.87c7.099 1.418 10.885 1.418 16.091 1.418 24.611 0 35.023-8.512 47.802-41.614zm237.693.473h-60.581V1h60.581v348.043zm272.222-120.112c0 78.026-50.64 125.787-121.632 125.787-70.993 0-121.635-47.761-121.635-125.787 0-77.554 50.642-125.788 121.635-125.788 70.992 0 121.632 48.234 121.632 125.788zm-182.686 0c0 50.598 21.771 80.863 61.054 80.863 38.812 0 61.052-30.265 61.052-80.863 0-50.126-22.24-80.864-61.052-80.864-39.283 0-61.054 30.738-61.054 80.864zm358.096 120.112c-2.37-13.24-3.32-26.008-3.32-37.83-11.36 27.427-41.65 43.032-79.98 43.032-46.86 0-80.93-26.009-80.93-69.514 0-48.234 37.86-68.095 86.61-73.77l71.94-8.039v-11.349c0-29.319-17.99-43.506-45.44-43.506-26.5 0-42.59 14.66-44.49 36.885h-58.21c5.2-51.544 45.43-81.809 104.59-81.809 65.32 0 102.71 30.738 102.71 93.159v92.685c0 22.226.94 40.668 4.73 60.056h-58.21zm-66.74-36.885c31.24 0 61.06-18.442 61.06-56.273v-14.659l-53.48 6.147c-25.56 3.31-44.97 8.985-44.97 34.048 0 18.915 13.26 30.737 37.39 30.737zm329.99 36.885V310.74c-11.84 24.117-40.71 43.978-77.15 43.978-62.95 0-106.02-51.072-106.02-125.787 0-74.243 43.07-125.788 106.02-125.788 37.39 0 64.84 20.807 76.2 44.924V1H1601v348.043h-59.63zm.47-115.856v-8.512c0-46.816-22.25-77.081-60.58-77.081-39.28 0-62 32.157-62 81.337 0 49.653 22.72 81.336 62 81.336 38.33 0 60.58-30.265 60.58-77.08z" fill="#D9D9D9"/><path d="M62.527 349.543h.5V225.175h78.065c39.822 0 71.426-8.999 93.083-26.892 21.672-17.906 33.311-44.66 33.311-80.008 0-35.346-11.639-62.219-33.37-80.243-21.715-18.011-53.437-27.128-93.497-27.128H.5v338.639h62.027zm370.098-.412l.073.412H491.938l-.116-.595c-3.778-19.343-4.724-37.749-4.724-59.961v-92.685c0-31.313-9.382-54.756-27.028-70.362-17.635-15.597-43.448-23.297-76.175-23.297-29.662 0-54.626 7.587-72.837 21.68-18.219 14.099-29.64 34.68-32.256 60.579l-.056.55h59.226l.039-.457c.937-10.998 5.381-20.092 12.842-26.439 7.463-6.35 17.989-9.989 31.149-9.989 13.645 0 24.868 3.526 32.675 10.628 7.8 7.095 12.26 17.824 12.26 32.378v10.902l-71.495 7.989h-.002c-24.414 2.842-46.168 9.242-61.829 21.023-15.687 11.8-25.224 28.973-25.224 53.244 0 21.895 8.58 39.417 23.075 51.456 14.486 12.031 34.841 18.558 58.357 18.558 37.435 0 67.362-14.841 79.497-41.17.119 11.18 1.093 23.161 3.309 35.556zm66.46-240.813h-.733l.267.682 93.64 239.572c-6.358 16.435-12.104 26.683-19.254 32.84-7.148 6.155-15.764 8.272-28.012 8.272h-.002c-5.193 0-8.941 0-15.992-1.409l-.598-.119v46.903l.418.07c8.546 1.423 19.932 2.371 28.006 2.371h.005c25.401-.237 45.165-6.17 61.427-19.621 16.248-13.439 28.947-34.34 40.319-64.403l93.71-244.479.26-.679H691.357l-.117.335-63.303 180.78h-.244l-66.612-180.788-.121-.327h-61.875zm331.403 241.225h.5V.5h-61.581v349.043h61.081zm447.132-.412l.08.412h59.24l-.12-.595c-3.78-19.343-4.72-37.749-4.72-59.961v-92.685c0-31.313-9.38-54.756-27.03-70.362-17.64-15.597-43.45-23.297-76.18-23.297-29.66 0-54.62 7.587-72.83 21.68-18.22 14.099-29.64 34.68-32.26 60.579l-.05.55h59.22l.04-.457c.94-10.998 5.38-20.092 12.84-26.439 7.46-6.35 17.99-9.989 31.15-9.989 13.65 0 24.87 3.526 32.68 10.628 7.8 7.095 12.26 17.824 12.26 32.378v10.902l-71.5 7.989c-24.41 2.842-46.17 9.242-61.83 21.023-15.69 11.8-25.22 28.973-25.22 53.244 0 21.895 8.58 39.417 23.07 51.456 14.49 12.031 34.84 18.558 58.36 18.558 37.43 0 67.36-14.841 79.5-41.17a214.99 214.99 0 0 0 3.3 35.556zm263.25-.088v.5h60.63V.5h-61.58v145.413c-11.97-23.455-39.12-43.27-75.7-43.27-31.62 0-58.26 12.951-77 35.231-18.72 22.273-29.52 53.841-29.52 91.057 0 37.451 10.8 69.019 29.52 91.234 18.74 22.221 45.38 35.053 77 35.053 35.68 0 64.18-18.95 76.65-42.401v36.226zM135.413 174.995H63.027V61.556h72.386c23.139 0 40.396 4.603 51.864 13.956 11.447 9.337 17.209 23.479 17.209 42.763 0 19.047-5.761 33.191-17.211 42.587-11.468 9.413-28.726 14.133-51.862 14.133zm291.524 80.89c0 18.77-7.39 32.695-18.63 41.937-11.253 9.252-26.397 13.836-41.923 13.836-11.994 0-21.213-2.937-27.425-8.158-6.201-5.211-9.465-12.746-9.465-22.079 0-6.201 1.2-11.169 3.371-15.19 2.171-4.02 5.328-7.122 9.289-9.566 7.943-4.902 19.083-7.14 31.863-8.796h.003l52.917-6.083v14.099zm554.141 99.333c35.612 0 66.152-11.981 87.792-33.782 21.64-21.801 34.34-53.382 34.34-92.505 0-38.888-12.7-70.468-34.34-92.328-21.64-21.86-52.18-33.96-87.792-33.96s-66.155 12.1-87.795 33.96c-21.641 21.86-34.34 53.44-34.34 92.328 0 39.123 12.699 70.704 34.34 92.505 21.641 21.801 52.184 33.782 87.795 33.782zm0-45.924c-19.498 0-34.607-7.502-44.857-21.256-10.267-13.774-15.697-33.87-15.697-59.107 0-25 5.43-45.097 15.697-58.931 10.252-13.814 25.362-21.433 44.857-21.433 19.252 0 34.362 7.618 44.682 21.434 10.32 13.835 15.87 33.932 15.87 58.93 0 25.235-5.55 45.331-15.87 59.106-10.31 13.756-25.42 21.257-44.682 21.257zm290.862-53.409c0 18.77-7.39 32.695-18.63 41.937-11.26 9.252-26.4 13.836-41.93 13.836-11.99 0-21.21-2.937-27.42-8.158-6.2-5.211-9.47-12.746-9.47-22.079 0-6.201 1.2-11.169 3.37-15.19 2.17-4.02 5.33-7.122 9.29-9.566 7.95-4.902 19.09-7.14 31.87-8.796l52.92-6.083v14.099zm269.4-31.21v8.512c0 23.335-5.55 42.486-15.81 55.79-10.25 13.289-25.25 20.79-44.27 20.79-19.49 0-34.84-7.852-45.33-21.848-10.51-14.014-16.17-34.23-16.17-58.988 0-24.521 5.66-44.738 16.17-58.812 10.49-14.057 25.84-22.025 45.33-22.025 19.02 0 34.02 7.501 44.27 20.79 10.26 13.304 15.81 32.455 15.81 55.791z" stroke="#000" stroke-opacity=".02"/></svg>