<svg width="1601" height="855" fill="none" xmlns="http://www.w3.org/2000/svg"><path d="M628.256 616.221c0 128.371-109.867 238.237-305.314 238.237-188.509 0-308.784-104.084-322.662-260.21h146.875c6.939 86.736 74.015 143.405 175.787 143.405 101.771 0 163.065-50.886 163.065-131.84 0-83.268-63.607-123.745-157.283-123.745h-85.58V368.731h83.267c77.485 0 139.936-34.694 139.936-122.588 0-71.702-48.573-128.37-139.936-128.37-97.145 0-153.813 64.763-159.596 148.031H25.723C34.975 122.398 139.06.967 327.568.967c186.195 0 282.184 113.336 282.184 240.55 0 97.146-64.764 166.535-148.031 181.57 99.458 16.191 166.535 91.363 166.535 193.134zm63.399 224.36V668.263h172.318v172.318H691.655zm206.634-412.875C898.289 180.216 1034.76.96 1249.86.96c215.11 0 350.42 179.256 350.42 426.746 0 247.489-135.31 426.746-350.42 426.746-215.1 0-351.571-179.257-351.571-426.746zm154.971 0c0 187.352 64.76 306.47 196.6 306.47 130.69 0 195.45-119.118 195.45-306.47 0-187.352-64.76-306.471-195.45-306.471-131.84 0-196.6 119.119-196.6 306.471z" fill="#fff"/></svg>